<?xml version="1.0" encoding="UTF-8"?>
<svg id="Layer_2" data-name="Layer 2" xmlns="http://www.w3.org/2000/svg" viewBox="0 0 314.35 248.4">
  <defs>
    <style>
      .cls-1 {
        fill: #e7e7e7;
      }
    </style>
  </defs>
  <g id="Layer_1-2" data-name="Layer 1">
    <g>
      <path class="cls-1" d="M59.38,238.93c-6.71,9.13-22.88,12.74-33.25,5.79-5.42-3.63-9.58-9.54-10.57-15.99-.47-3.07-.15-6.29.2-9.34.19-1.6,1.89-3.66,2.57-5.13,2.02-4.35,9.32-9.48,14.82-8.14,6.5,1.6,6.1,4.89,9.07,9.81.36-6.41-4.7-10.4-10.08-11.66-2.26,1.1-4.2.03-5.42-1.79l-5.01-7.68c-.35-.54-1.58-1.5-2.2-1.34s-1.59.77-2.28,1.23c-4.72,3.18-11.17,3.21-14.78-.91-2.86-3.26-3.16-7.38-1.2-10.68,1.73-2.91,3.88-4.35,6.63-6.21l9.07-6.15c1.54-4.97,4.6-8.4,8.68-11.09s9.39-2.89,13.38.2l.63.48c.89.69,2.34-1.68-5.03-3.83-3.5-1.02-4.91,1.51-7.38-2.29l-6-9.25-5.19,2.78c-3.57,1.91-7.25,1.97-10.86-.16-2.93-1.77-4.38-5.29-4.59-9.5.62-1.22,1.35-3.7,2.39-4.84,3.52-3.88,7.98-6.55,12.47-9.02,2.71-1.49,3.75-3.17,4.93-5.82,2.65-5.95,7.84-9.8,14.32-10.03,4.15-.15,6.86,2.84,10.05,5.81-1.65-5.94-7.93-8.22-13.71-7.23l-7.69-11.5c-2.97,1.12-5.35,3.08-8.2,3.78-5.05,1.24-10.46-1.73-11.67-6.19-1.43-5.23.16-9.39,4.42-12.05l12.23-8.41c1.65-4.67,4.05-8.76,8.27-11.26,5.16-3.69,11.35-3.15,16.24,1.26-1.13-3.79-5.34-5.26-9.01-4.81-1.67.2-3.42-.31-4.33-1.74l-6.45-10.19-3.72,2.3c-3.72,2.3-7.63,2.88-11.39.81-3.12-1.72-5.63-5.13-5.19-9.22s2.72-6.88,6-9.02l24.84-16.23c3.94-2.57,9.48-2.03,12.63,1.42,1.72,1.88,2.9,5.5,2.8,7.69-.17,3.63-2.29,5.29-4.54,7.34l-1.67,1.52c-.4.36.11,1.89.37,2.37l10.63,16.07,9.2,14.17c2.95,4.54,4.58,9,3.92,14.85,1.95-.11,2.84-1.13,4.4-1.94l4.59-2.39c-6.13-4.12-8.93-6.53-12.47-12.94-5.13-9.27-3.01-23.79,5.34-31.14,7.49-6.6,18.33-9.05,27.5-5.42,6.79,2.69,11.89,7.82,14.55,14.45,1,2.48,1.64,6.35,2.43,8.64.12.35,1.61-.23,1.5-.58l-.51-1.62-5.6-31.23c-.66-2.89-1.01-6.81-.06-9.33,1.49-3.96,4.8-6.19,8.38-6.39,4.53-.26,8.09.91,10.05,5.38.73,1.68,1.35,4.37,1.67,6.43l.31,1.94c.38,2.39,6.05-3.3,12.36-3.68,9.1-.54,15.8,5.91,17.26,14.6l3.87,23.16c.83,4.96-1.33,9.43-5.37,11.48-4.32,2.19-9.24,1.51-12.37-2.74s-3.04-16-6.14-25.17c-.49-1.44-4.53-1.19-5.13.1-1.25,2.66-.26,5.86.2,8.53l1.37,7.91,1.02,6.66c.2,1.31-.68,3.92-.86,5.4,4.09-.02,7.92-.94,11.55.34,4.75,1.68,8.28,5.61,9.55,10.59,1.87,7.3,2.65,14.74,4.12,22.36.83,4.33,1.94,8.61-1.14,12.35-2.58,3.14-6.71,4.89-10.71,3.82-3.81-1.02-6.59-4.39-7.31-8.58l-3.15-18.24c-.39-2.27-2.55-3.37-4.33-2.9-2.51.67-2.83,2.58-2.46,4.88l3.09,19c.43,2.63-1.37,5.46-.8,5.69l1.26.52c5.9-1.84,12.22.05,16.42,4.43,3.26,3.95,3.98,8.69,4.84,13.61l.98,5.6.92,5.12c.83,4.61,2.25,9.67.7,14.35-1.78,5.39-8.91,7.49-13.56,5.12-2.67-1.36-4.47-3.09-5.04-5.96l-4.07-20.58c-.32-1.64-2.55-2.74-3.68-2.53-1.72.31-3.21,1.61-2.94,3.7l.52,4.07.93,5.63c.72,4.35,2.22,8.72,1.55,13.12l-.32,2.1c-.08.54,1.51.73,1.98.62,8.79-1.67,16.97,3.62,18.66,12.3l1.15,6.38,2.98,16.63c.6,3.38.72,7.17-1.41,9.94-.75.97-2.67,2.83-3.89,3.04l-5.89,1.01c-5.51-1.18-8.15-6-8.49-11.21l-2.04-11.68-1.32-5.03c-.47-1.81-2.29-2.26-3.92-2.01-1.39.21-2.89,1.92-2.56,3.83l2.73,16.08c.73,4.3.83,7.96-2.41,11.47-2.59,2.81-6.69,4.04-10.34,2.55-3.6-1.47-5.83-4.44-6.53-8.48l-3.94-22.64-2.19-12.04c-.79-4.38-2.86,1.92-8.98,4.65-5.27,2.35,5.16,3.31,9.64,14.04,1.03,2.48,2.37,5.71,2.22,8.35l-.33,6.06c-.21,3.88-2.77,10.02-5.57,13.15-7.29,8.13-14.99,10.63-26.2,8.86-12.59-3.18-20.49-15.21-19.26-28.34-1.13-.05-2.06.35-2.9,1.01l-3.59,2.81,8.63,13.66c5.05,7.98,5.29,18.09-.76,26.32ZM94.67,49.54c-.39-4-3.8-6.57-7.32-5.84s-5.47,3.72-4.93,7.45c.48,3.35,3.51,6.05,6.69,5.6,3.54-.5,5.95-3.19,5.56-7.22ZM114.61,96.19l-1.06-5.77-.92-5.24-2.49-13.87c-.23-1.27-.19-2.55-1.04-3.55-3.23,3.73-6.52,5.9-11.02,7.89l8.06,6.02c4.02,4.96,6.61,9.99,6.9,16.52.13.3,2,.48,1.92.01l-.35-2ZM81.26,102.27c1.66,3.18,4.56,4.64,8.11,3.46,2.37-.79,4.65-3.89,3.95-6.73s-1.92-5.32-4.41-5.89-5.15.47-6.77,2.28c-1.82,2.04-2.27,4.21-.88,6.88ZM67.64,129.64l8.53-4.71c-10.57-5.62-16.34-16.24-15.15-28.52l-4.93,2.47-1.51.61c-.26.11-.25.91-.23,1.28l10.02,15.79c2.33,4.01,3.23,8.41,3.26,13.07ZM111.04,145.32c.4,1.42.71,2.1,1.8,3.02.03-1.34-.04-2.12-.21-3.14l-1.51-8.82-3.56-18.98c-3.32,2.91-5.6,5.49-9.25,6.84-.61.23-1.51.67-1.47,1.14.03.37.63.9,1.07,1.14,7.06,3.9,11.72,10.61,13.14,18.79ZM91.45,149.26c0-2.63-1.37-4.82-3.15-5.95-1.98-1.26-4.53-.85-6.89.39s-2.65,4.87-2.03,7.57c.72,3.11,4.02,4.86,6.84,4.27,2.99-.63,5.25-2.55,5.24-6.27ZM67.61,177.5l4.9-2.71c.33-.18,1.33-.91,1.04-1.09l-1.31-.86c-8.92-5.81-14.18-15.71-13.22-26.79-2.52,1.06-4.72,2.25-7,3.81,4.54,6.55,8.72,12.22,12.02,18.97,2.93,5.99.05,10.62,3.57,8.67ZM89.38,200.22c.74-1.77.42-5.16-.48-6.66-1.36-2.29-6.06-4.13-9.97-.63-2.95,2.64-2.13,7.81,1.03,9.85,2.95,1.9,7.69,1.55,9.42-2.56ZM40.89,220.41c.41-.59.82-1.32.97-1.76.11-.36-.65-1.04-1.06-1.32-.64,4.07-4.1,5.79-3.15,9.85.18.74,1.28,1.63,1.94,1.64,4.75.1-.85-5.29,1.3-8.41Z"/>
      <path class="cls-1" d="M294.95,189.96c-1.98,4.32,4.26-1.93,8.11,2.36,2.51.19,4.2,1.93,5.15,4.12,2.22,3.73.62,7.71-1.06,11.35l-5.78,12.45-5.12,10.77-4.47,8.7c-6.56,12.77-24.98,9.93-35.04,1.37-3.37-2.87-6.08-6.16-6.58-10.44-.55-4.72.95-8.85,5.07-10.92,3.79-1.9,9.28-1.34,11.64,2.57,3.06,5.07,4.24,9.2,7.75,7.13.69-.41,1.85-2.24,1.11-2.65-1.39-.76-4.37-.3-5.18-1.93-5.52-11.16-11.72-7.33-13.13-9.23-2.22-2.98-2.16-6.57-.88-9.86l3.53-9.06c.43-1.11,1.02-2,.79-2.95-.18-.76-2.34-1.97-2.55-1.23l-1.88,6.79-1.1,4.08-2.11,7.95c-.55,2.08-1.52,2.92-3.1,4.04-1.77,1.26-3.17,2.25-5.38,2.28-3.48.04-6.28-.97-8.29-3.47s-2.39-5.59-1.59-8.9l4.62-19.11c.46-1.92-2.1-3.9-3.45-3.92-1.77-.02-3.5,1.31-4.03,3.35l-3.62,14c-1.12,4.34-2.4,8.85-6.98,10.54-2.11.77-4.12.95-6.07.37-4.94-1.47-6.43-4.52-7.47-9.47l3.36-12.39,2.65-10.9,1.41-5.04c.82-2.93,1.58-6.68,3.57-8.48,2.92-2.64-6.7-2.06-7.65-8.75-.24-1.72-.44-3.23-1.99-4.31-1.75,7.24-8.4,5.84-4.37,10.16,2.72,2.92,3.67,7.16,3.48,11.16l-.81,17.06-.05,8.98c0,1.52-1.7,4.11-2.51,5.3-2.66,3.93-8.28,4.48-11.82,2.7-4.63-2.33-6.05-6.88-5.29-11.63.48-2.99.28-6.27.34-9.29l.17-8.23c.03-1.64-1.62-3.04-2.96-3.37-1.58-.39-3.83.52-4.04,2.39l-.58,4.99c-.68,5.85.35,11.84-.93,17.49-.94,4.16-4.94,7.28-8.78,7.22-4.29-.06-9.29-1.99-9.85-6.59s-.28-9.52-.07-14.17l.44-9.46.66-10.43c.46-7.34,3.33-7.11,3.95-8.7s-3.42-3.4-3.31-7.19l.57-20.17.97-14c.22-3.19,2.35-5.83,4.42-8.36-4.24-3.18-4.68-7.71-4.36-12.3l.55-7.91.49-12.19.4-7.06c.4-7.13,3.32-7.92,3.98-9.62.46-1.19-3.77-2.54-3.72-6.79l.15-13.79c.09-7.83-.02-15.59,1.54-23.26.8-3.94,4.15-6.28,8.06-7.07,3.58-.71,7.21,1.69,9.83,4.59,5.02-3.18,10.73-4.51,16.32-3.09,5.17,1.31,9.32,4.69,10.86,9.77,1.21,3.98.82,7.79.56,11.83l-.47,7.48-.42,12.86c-.24,7.3-7.77,8.08-5.24,10.42,6.58,6.1,4.94,12.64,4.72,20.26l-.33,11.49-.47,7.11c-.49,7.47-6.21,8.09-6.29,9.76-.09,1.92,6.06,2.91,5.74,14.71l-.3,11.26-.53,8.35c-.15,2.42-.86,4.56.59,6.84l2.44-8.66,4.18-16.84c.84-3.4,1.47-7.22,3.74-9.72l1.3-1.43c1.44-1.58-5.03-.73-8.26-5.14-1.9-2.59-2.01-5.45-1.27-8.41l6.48-26.1c.79-3.2,1.42-6.16,3.59-8.66l.94-1.08c.22-.26-.8-1.23-1.17-1.25-4.23-.29-9.57-4.3-8.86-9.19.99-6.87,2.76-13.31,4.38-19.91l3.21-13.09c1.09-4.44,4.47-7.38,8.37-7.93,4.63-.65,8.55,1.2,10.59,5.55,1.12.1,2.71.12,3.79-.18,5.94-1.68,12.01-.46,16.79,3.39,5.16,4.15,6.37,10.63,4.56,16.98l-7.26,26.76c-.77.59-1.62,1.52-1.74,2.13-.21,1.07,2.72,3.96,6.6,3.13,9.6-2.04,10.57,7.52,13.09,9.74.95.83,3.88.31,4.99-.23.35-.17-.03-1.38-.39-1.52-2.22-.91-3.73,1.13-5.96-3.87-3.6-8.07-11.65-5.59-12.11-6.95l-.67-1.95c-.86-2.49-1.16-4.59-.29-7.05l2.8-7.91,5.63-12.22c1.57-3.4,4.03-6.62,7.74-7.15,5.72-.82,10.24,1.7,11.93,7.11.57,1.83.47,4.11-.43,6.14l-5.59,12.59c-.88,1.99.43,3.91,2.07,4.53,5.14,1.92,5.73-8.17,11.1-15.37,3.7-4.97,9.44-5.08,14-1.49,3.91,3.07,4.44,8.24,2.28,12.93l-15.19,32.88c-1.92,4.15-5.37,7.61-9.45,8.74-2.61.72-3.57,1.79-4.64,4.13-.88,1.93-2.07,4.48-.87,6.66.43.79,2.26,1.48,3.06,1.34,4.16-.72,5.53-10.15,9.71-15.65,3.09-4.07,8.51-4.99,12.47-2.77s6.87,7.13,4.67,11.96l-17.04,37.45c3.96-.96,6.96-1.81,10.46.14,2.29,1.28,4.47,4.07,5.19,7.5.44,2.11-.67,4.67-1.62,6.75l-4.15,9.04-1.59,3.46-3.88,8.45-5.27,11.49ZM194.95,57.25c-1.38-3.17-2.42-5.77-1.89-8.56l.44-14.6c.08-2.67.58-5.23-1.55-7.47-1.71-.69-3.8-.17-5.15,1.33-.35,5.76-1.03,11.35-1,17.15.03,4.74-.46,8.99-4.63,12.21,1.03,1.44,2.23,2.63,3.59,3.47,3.37-1.94,6.25-2.68,10.18-3.53ZM239.35,68.45c.67.09,1.91.23,2-.11l.37-1.37c-2.59-3.04-2.79-6.75-1.49-10.33l4.42-17.56c.54-2.16-1.33-3.99-3.03-4.25-1.87-.29-3.64,1.01-4.18,3.11l-5,19.33c-.39,1.52-2.37,3.01-2.96,4.74,4.42.85,7.78,2.47,9.88,6.45ZM193.11,107.05c.86-1.68-.93-3.24-1.07-4.46-.46-3.99-.03-7.85.04-11.79l.21-11.95c.03-1.89-2.47-3.62-3.6-2.98-2.7-.1-3.18,1.42-3.66,3.76l-.8,19.6c-.12,2.97-2.13,5.39-4.07,7.3-.32,1.88,1.43,3.64,3.23,3.77,3.08-1.62,6.17-2.59,9.72-3.24ZM237.18,117.63l2.08.64c.46.14,1.38-1.06,1.22-1.52-.65-1.94-2.75-4.37-2.25-6.47l5.14-21.51c.62-2.6-.9-4.49-3.31-5-1.61-.34-3.42,1.31-3.94,3.37l-3.18,12.69c-.79,3.15-1.28,6.71-3.34,9.28-.87,1.08-1.62,1.86-1.01,3.13,3.78.15,6.69,1.83,8.6,5.39ZM279.64,128.48l-5.02-1.4c-1.29-3.54-3.43-7.39-7.23-8.15l-5.88-1.19c-1.99-3.48-1.95-7.2-.53-10.86l3.12-8.07c.47-1.21,1.2-2.09.83-2.93-.29-.65-2.38-1.51-2.61-.74l-2.21,7.56c-1.25,4.26-1.74,9.32-4.12,13.14-.34.54-1.88,1.43-1.66,2.09s1.11,1.45,1.64,1.91c2.07,1.79,3.38,1.46,5.66.8,5.29-1.52,9.98,2.33,11.61,7.29.24.72,1.05,2.03,1.57,2.42.41.3,3.11.61,4.67.16.5-.15.72-1.87.15-2.03ZM191.71,155.69c-2.09-3.91-1.65-7.45-1.52-11.43l.36-10.59.04-4.32c.02-2.3-1.49-4.18-3.58-4.09-2.39.11-3.43,1.69-3.53,4.15l-.35,8.86-.45,7.02c-.27,4.12-.56,7.96-4.55,10.5.06,1.63,1.32,3.11,2.85,3.62,3.3-2.04,6.22-2.91,10.73-3.73ZM237.76,166.83c2.34-.56-2.22-4.34-.88-9.64l4.82-19.03c.59-2.34-1.07-4.24-2.86-4.54-2.32-.38-3.72.68-4.29,2.92l-4,15.62c-.6,2.36-1.18,5.35-3.43,6.98-.42.31.35,1.88.91,2,5.5,1.13,5.55,6.69,9.74,5.69ZM271.77,173.82c-1.28-3.28-4.83-5.88-8.39-6.35-1.5-.2-2.95-.14-3.83-1.23-.61-.75-1.08-2.5-1.18-3.83-.64-8.3,5.92-14.43,4.29-18.13-.14-.32-1.06-1.01-1.32-.8l-.94.77-5.26,20.01c-.69.46-2.89,2.53-2.25,3.3.87,1.05,2.87,2.44,4.13,3.41,3.65-2.31,7.95-1.79,11.55,1.37,2.7,2.37,3.02,8.96,8.78,7.2.42-.13,1.24-1.31.97-1.65-1.18-1.48-4.58.97-6.55-4.08ZM287.32,158.6l4.55-9.52c.13-.28.09-1.55-.2-1.46l-1.14.38c-2.03.68-5.13,2.22-7.52,2.36l-1.93,4.64c-.97,2.35-1.05,4.16.96,5.65,1.67,1.23,4.06.45,5.27-2.06ZM285.27,207.52l4.25-9.5c1.37-3.06-4.29,1.88-8.73,1.17l-2.8,6.53c-.88,2.05,1.04,3.88,2.69,4.45s3.57-.38,4.59-2.64Z"/>
    </g>
  </g>
</svg>